<svg width="1514" height="894" viewBox="0 0 1514 894" fill="none" xmlns="http://www.w3.org/2000/svg">
    <path d="M0 226.633H265.309V352.928H196.546V760.226H70.2508V352.928H0V226.633Z" fill="#40B66B" />
    <path
        d="M316.872 720.627C300.434 704.189 289.094 686.137 282.862 666.461C276.619 646.766 274.995 627.08 277.97 607.404C280.964 587.737 287.95 569.676 298.908 553.238C309.886 536.801 324.347 523.602 342.272 513.632C360.196 503.671 380.87 498.681 404.304 498.681V628.694C404.304 628.694 404.421 628.949 404.656 629.438C404.91 629.937 405.292 630.69 405.791 631.708C407.278 633.195 409.02 633.939 411.035 633.939C411.035 633.939 411.397 633.821 412.131 633.586C412.884 633.332 413.755 632.706 414.753 631.708C415.741 630.69 416.24 629.937 416.24 629.438C416.24 628.949 416.24 628.694 416.24 628.694V491.95C416.24 487.469 414.499 485.218 411.035 485.218H278.009V358.18H411.035C435.926 358.18 458.205 364.158 477.881 376.104C497.577 388.061 513.271 404.126 524.963 424.321C536.674 444.496 542.535 467.039 542.535 491.95V628.694C542.535 652.626 536.557 674.553 524.611 694.483C512.654 714.394 496.716 730.333 476.785 742.309C456.845 754.265 434.928 760.233 411.035 760.233C394.069 760.233 377.377 756.868 360.94 750.136C344.502 743.405 329.806 733.571 316.872 720.627Z"
        fill="#40B66B" />
    <path
        d="M689.035 358.914C714.445 358.914 737.232 364.775 757.408 376.487C777.573 388.179 793.511 403.99 805.233 423.92C816.945 443.861 822.805 466.032 822.805 490.453V633.186C822.805 655.102 817.444 675.786 806.72 695.218C796.016 714.63 781.203 730.324 762.261 742.299C743.318 754.256 721.402 760.224 696.51 760.224V490.453C696.51 485.972 694.378 483.722 690.131 483.722C685.904 483.722 683.791 485.972 683.791 490.453V893.251H557.496V491.94C557.496 467.519 563.337 445.231 575.029 425.055C586.741 404.89 602.562 388.834 622.503 376.878C642.433 364.902 664.614 358.914 689.035 358.914Z"
        fill="#40B66B" />
    <path d="M837.734 346.196V226.633H964.029V346.196H837.734ZM837.734 760.226V359.659H964.029V760.226H837.734Z"
        fill="#40B66B" />
    <path
        d="M978.992 760.225V348.465C978.992 324.044 984.589 302.382 995.782 283.459C1006.99 264.517 1022.33 249.703 1041.77 238.999C1061.2 228.276 1083.12 222.914 1107.52 222.914C1131.94 222.914 1153.6 228.276 1172.52 238.999C1191.47 249.703 1206.28 264.517 1216.98 283.459C1227.71 302.382 1233.07 324.044 1233.07 348.465V417.19H1112.02V348.465C1112.02 343.984 1110.02 341.734 1106.03 341.734C1102.04 341.734 1100.04 343.984 1100.04 348.465V430.653H1233.07V557.691H1100.04V760.225H978.992Z"
        fill="#40B66B" />
    <path
        d="M1374.33 358.18V758.746C1349.41 758.746 1327.36 753.022 1308.18 741.565C1289.01 730.088 1274.18 714.756 1263.73 695.579C1253.26 676.402 1248.03 655.855 1248.03 633.939V358.18H1374.33ZM1513.34 358.18V760.233C1513.34 796.601 1500.13 827.989 1473.73 854.397C1461.26 867.332 1446.81 877.175 1430.37 883.906C1413.93 890.638 1397.5 894.003 1381.06 894.003H1248.03V770.683H1381.06C1384.55 770.683 1386.3 768.433 1386.3 763.951V358.18H1513.34Z"
        fill="#40B66B" />
    <mask id="mask0_350_206" style="mask-type:luminance" maskUnits="userSpaceOnUse" x="875" y="0" width="472"
        height="136">
        <path d="M875.918 0H1346.81V135.257H875.918V0Z" fill="white" />
    </mask>
    <g mask="url(#mask0_350_206)">
        <mask id="mask1_350_206" style="mask-type:luminance" maskUnits="userSpaceOnUse" x="856" y="-8" width="510"
            height="251">
            <path d="M864.611 -7.58594L1365.89 9.69302L1357.86 242.499L856.578 225.22L864.611 -7.58594Z" fill="white" />
        </mask>
        <g mask="url(#mask1_350_206)">
            <mask id="mask2_350_206" style="mask-type:luminance" maskUnits="userSpaceOnUse" x="846" y="-8" width="520"
                height="538">
                <path d="M864.61 -7.58594L1365.89 9.69302L1347.96 529.754L846.676 512.466L864.61 -7.58594Z"
                    fill="white" />
            </mask>
            <g mask="url(#mask2_350_206)">
                <path
                    d="M1113.93 40.4738C1191.45 43.1449 1264.47 76.7733 1316.89 133.316L1345.73 106.39C1286.21 42.2252 1203.28 4.09605 1115.29 1.06293C1027.29 -1.97018 941.948 30.3569 878.145 90.2756L905.071 119.119C961.252 66.314 1036.41 37.8027 1113.93 40.4738Z"
                    fill="white" />
            </g>
        </g>
    </g>
    <mask id="mask3_350_206" style="mask-type:luminance" maskUnits="userSpaceOnUse" x="926" y="77" width="364"
        height="114">
        <path d="M926.016 77.6484H1289.21V190.363H926.016V77.6484Z" fill="white" />
    </mask>
    <g mask="url(#mask3_350_206)">
        <mask id="mask4_350_206" style="mask-type:luminance" maskUnits="userSpaceOnUse" x="856" y="-8" width="510"
            height="251">
            <path d="M864.619 -7.58203L1365.89 9.69692L1357.87 242.503L856.586 225.224L864.619 -7.58203Z"
                fill="white" />
        </mask>
        <g mask="url(#mask4_350_206)">
            <mask id="mask5_350_206" style="mask-type:luminance" maskUnits="userSpaceOnUse" x="846" y="-8" width="520"
                height="538">
                <path d="M864.63 -7.58203L1365.91 9.69692L1347.98 529.758L846.695 512.47L864.63 -7.58203Z"
                    fill="white" />
            </mask>
            <g mask="url(#mask5_350_206)">
                <path
                    d="M1113.04 79.0207C1045.38 75.2049 978.954 98.8534 928.301 144.008L955.217 172.842C998.033 135.006 1053.92 115.232 1110.87 118.402C1167.6 121.514 1220.41 146.855 1257.89 188.389L1286.72 161.492C1242.31 112.542 1179.97 82.6996 1113.04 79.0207Z"
                    fill="white" />
            </g>
        </g>
    </g>
    <mask id="mask6_350_206" style="mask-type:luminance" maskUnits="userSpaceOnUse" x="981" y="152" width="254"
        height="89">
        <path d="M981.121 152.793H1234.1V240.46H981.121V152.793Z" fill="white" />
    </mask>
    <g mask="url(#mask6_350_206)">
        <mask id="mask7_350_206" style="mask-type:luminance" maskUnits="userSpaceOnUse" x="856" y="-8" width="510"
            height="251">
            <path d="M864.615 -7.58203L1365.89 9.69692L1357.87 242.503L856.582 225.224L864.615 -7.58203Z"
                fill="white" />
        </mask>
        <g mask="url(#mask7_350_206)">
            <mask id="mask8_350_206" style="mask-type:luminance" maskUnits="userSpaceOnUse" x="846" y="-8" width="520"
                height="538">
                <path d="M864.614 -7.58203L1365.89 9.69692L1347.97 529.758L846.68 512.47L864.614 -7.58203Z"
                    fill="white" />
            </mask>
            <g mask="url(#mask8_350_206)">
                <path
                    d="M1110.06 152.989C1062.62 151.355 1016.7 169.446 983.086 202.712L1010 231.556C1035.99 205.383 1071.75 191.128 1108.7 192.409C1145.65 193.681 1180.35 210.363 1204.46 238.258L1233.3 211.342C1202.06 175.835 1157.49 154.623 1110.06 152.989Z"
                    fill="white" />
            </g>
        </g>
    </g>
</svg>